<svg xmlns="http://www.w3.org/2000/svg" viewBox="0 0 292.3 156.07"><defs><style>.cls-1{fill:#fff0b7;}.cls-2{fill:#712c18;}.cls-3{fill:#feb9c8;}</style></defs><title>Zasób 1</title><g id="Warstwa_2" data-name="Warstwa 2"><g id="Warstwa_1-2" data-name="Warstwa 1"><path class="cls-1" d="M88,44.51a17.31,17.31,0,0,0,2.38-.11L88,60.14a71.1,71.1,0,0,1-1.36,7.25c-.34,0-.68.11-1.25.11a8.55,8.55,0,0,0-8.49,7.36l-.11.57a8.59,8.59,0,0,0,8.49,9.74H119.6a8.71,8.71,0,0,0,6.34-2.83,27.24,27.24,0,0,0,13.36,3.4c9.18,0,18.13-4.08,25.15-11,4.53,6.8,12.12,11,21.52,11,12.12,0,24.12-7.36,31.25-19a8.44,8.44,0,0,0,.91-6.8,8.26,8.26,0,0,0-3.4-4.64,18,18,0,0,0,6.69-13.82c0-8.72-6.46-18-24.69-18A36.69,36.69,0,0,0,172,32.84c-4-5.77-11.78-9.4-21.86-9.4a37.11,37.11,0,0,0-23.79,8.61v-.23c.8-5.21,2.16-6,4.08-7.36,2.38-1.47,7.14-4.75,7.14-11.78S131.83,0,124.47,0a13.17,13.17,0,0,0-11.33,6.34,5,5,0,0,0-.56,1.13c-.8-.34-1.7-.68-2.5-1-5.66-2.26-12-5-19.14-5C77.46,1.47,66.82,11.33,66.82,24A21.17,21.17,0,0,0,88,44.51Z"/><path class="cls-1" d="M291.64,111.11c.57-3.28,2.15-12.23-3.29-18.69-2.26-2.6-6.45-5.77-14-5.77a22.25,22.25,0,0,0-13.82,4.53C258,88.8,254,86.65,247.81,86.65a23.45,23.45,0,0,0-11.89,3.17c-2.5-2.15-5.89-3.17-10.2-3.17a42.58,42.58,0,0,0-12,2.26,15.17,15.17,0,0,0-1.7-1.13,8.78,8.78,0,0,0-10.2,2.15,35.93,35.93,0,0,1-3.51-1,33,33,0,0,0-11.09-2.26c-8.39,0-16.43,3.39-23.11,9.85-3.17-5.44-10.19-9.85-22.54-9.85a36,36,0,0,0-22,7.25c-3.17-4.65-8.49-7.93-16.08-7.93a21.76,21.76,0,0,0-11.78,3.28,15.79,15.79,0,0,0-9.29-2.6,31.7,31.7,0,0,0-5.44.56c-.9-11.66-12-19.7-27.4-19.7C18.57,67.51,0,94.46,0,120.4c0,17.67,13,35.67,37.83,35.67,12.91,0,22.08-4.75,27.63-11.32a19.22,19.22,0,0,0,13,4.53,26.85,26.85,0,0,0,7.36-1,7.77,7.77,0,0,0,3.74-2.15l.22-.23a8.62,8.62,0,0,0,2.38-7.47A9,9,0,0,0,91,135.12a67.18,67.18,0,0,1,2-11c.22-.91.45-1.7.67-2.61a16.26,16.26,0,0,0,9,2.61A15.82,15.82,0,0,0,105,124c.68,14.84,11.1,25,25.94,25,8.6,0,17.1-3.62,23.89-10a19,19,0,0,0,17.11,10,20.27,20.27,0,0,0,13.13-4.53c2.83,2.38,7.37,4.53,14.27,4.53a34.91,34.91,0,0,0,7.82-.79,7.56,7.56,0,0,0,3.06-1.36,19.05,19.05,0,0,0,9.51,2.15,50.76,50.76,0,0,0,8.38-.79,8.34,8.34,0,0,0,4.76-2.38l.22-.23a5.88,5.88,0,0,0,.8-.9c2.94,2.94,7,4.3,12.34,4.3a50.67,50.67,0,0,0,8.38-.79,8.65,8.65,0,0,0,4.76-2.38l.23-.23a7.48,7.48,0,0,0,1.58-2.26c2.61,2.72,7.25,5.66,15.18,5.66a39.4,39.4,0,0,0,7.93-.91,8.18,8.18,0,0,0,4.3-2.37l.23-.23a8.69,8.69,0,0,0,2.38-7.81,8.26,8.26,0,0,0-2.49-4.42,46,46,0,0,1,.79-10.42l2.15-11.78Zm-75-10.76v0Zm-.11-.45a.11.11,0,0,0-.11-.11C216.55,99.79,216.55,99.79,216.55,99.9Z"/><path class="cls-2" d="M87.66,75.66a1,1,0,0,1-.68-.34,1.62,1.62,0,0,1-.23-.68l.12-.56a.82.82,0,0,1,.79-.68c7.81,0,8.72-3.51,10.3-13.82l4.42-28.65c1.36-8.84,9-12.35,15.29-13.71a70.88,70.88,0,0,1-9.29-3.39c-5-2-9.62-4.08-14.61-4.08-2.37,0-8,.56-8,5.66,0,4.08,3.63,4.42,4.65,4.42A7.2,7.2,0,0,0,96,16.77a.79.79,0,0,1,.68-.34.42.42,0,0,1,.34.11c4.08,1.82,6.12,5.33,5.21,9.29a12.4,12.4,0,0,1-12,9.06C83.69,34.89,77,30,77,22,77,13.6,84,7.14,93.43,7.14c5.55,0,11,2.27,16.2,4.42s9.85,4.08,14.61,4.08c1.25,0,1.81-.68,1.81-1.25a1,1,0,0,0-1-1,2.74,2.74,0,0,0-1.47.45.64.64,0,0,1-.45.12h-.23a1.12,1.12,0,0,1-.56-.46,5.08,5.08,0,0,1-.12-5.21,5.39,5.39,0,0,1,4.65-2.6c2.6,0,5.43,1.81,5.43,5,0,2.95-1.81,4.08-3.73,5.33-2.72,1.81-6.12,4.07-7.48,12.57l-5.32,33.63c-.8,5.21-.68,7.93.56,9.4.91,1.14,2.61,1.59,5.44,1.59a1,1,0,0,1,.68.34,1.67,1.67,0,0,1,.23.68l-.12.57a.83.83,0,0,1-.79.68H87.66v.22Z"/><path class="cls-2" d="M127.19,6.68c2.15,0,4.53,1.48,4.53,4.08,0,6.12-8.83,2.83-11.21,17.78l-5.33,33.64c-1.47,8.95-.11,12,6.91,12l-.11.57H87.66l.12-.57c8.83,0,9.62-4.75,11.21-14.49L103.41,31c1.69-11.1,13.93-13.47,20.61-13.81V17.1c-10.53,0-19.71-8.26-30.13-8.26C88.68,8.84,85,11,85,15.4c0,4,2.94,5.33,5.55,5.33a8,8,0,0,0,6.34-3.4c9.85,4.42,3.39,16.76-6.34,16.76C84.27,34.09,78,29.33,78,22,78,14.16,84.49,8,93.55,8c10.65,0,20.84,8.38,30.81,8.38,1.81,0,2.72-1.13,2.72-2.15a1.91,1.91,0,0,0-1.93-1.92,5.07,5.07,0,0,0-1.92.56c-1.82-3.28.9-6.23,4-6.23m0-1.7a6.39,6.39,0,0,0-5.44,2.95,6.18,6.18,0,0,0,0,6.11,2.77,2.77,0,0,0,.8.8c-4.08-.46-8.16-2.15-12.46-3.85-5.33-2.16-10.76-4.42-16.54-4.42-9.85,0-17.21,6.68-17.21,15.63C76.34,30.81,83.47,36,90.49,36a13.59,13.59,0,0,0,11.44-6.46,4.9,4.9,0,0,0-.22,1.25L97.29,59.46C95.7,69.65,94.91,72.6,87.77,72.6a1.82,1.82,0,0,0-1.7,1.47l-.11.57A1.54,1.54,0,0,0,86.41,76a1.84,1.84,0,0,0,1.25.57H122a1.82,1.82,0,0,0,1.7-1.47l.11-.57a1.57,1.57,0,0,0-.45-1.36,1.83,1.83,0,0,0-1.25-.56c-3.28,0-4.3-.8-4.76-1.25-1-1.24-1.13-4-.45-8.72L122.2,29c1.25-8.15,4.53-10.3,7.14-12,2-1.36,4.08-2.72,4.08-6.12A6,6,0,0,0,127.19,5ZM90.49,19.14c-1.47,0-3.85-.45-3.85-3.62,0-4.19,4.53-4.87,7.25-4.87,4.87,0,9.4,1.92,14.27,4,2.15.91,4.31,1.81,6.46,2.49-4.31,1.36-8.72,3.85-11.21,8.38.56-4.07-1.48-7.7-5.78-9.62a1.37,1.37,0,0,0-.68-.12,1.63,1.63,0,0,0-1.36.68,6.79,6.79,0,0,1-5.1,2.72Zm33.3-4.3a.88.88,0,0,0,.45-.23,1.7,1.7,0,0,1,1-.34c.12,0,.23,0,.23.11s-.34.46-1,.46Z"/><path class="cls-2" d="M141.8,76.22c-9,0-18.12-5.77-18.12-18.69,0-15.63,13-28.31,29.1-28.31,7.82,0,17,3,17,11.33a10.35,10.35,0,0,1-10.42,10.3,7.6,7.6,0,0,1-5.89-2.38,7.1,7.1,0,0,1-1.58-6,.73.73,0,0,1,.68-.68,5.77,5.77,0,0,0,4.53-5.43,4.51,4.51,0,0,0-4.87-4.65c-7.59,0-10.87,13-10.87,19.71,0,8.72,4.19,13.93,11.21,13.93a16.28,16.28,0,0,0,12.34-5.66.82.82,0,0,1,.68-.34.41.41,0,0,1,.34.11l.46.23a1.14,1.14,0,0,1,.45.56.77.77,0,0,1-.11.68c-5.67,9.4-15.18,15.29-24.92,15.29Z"/><path class="cls-2" d="M152.78,30.13c6,0,16.08,2,16.08,10.42a9.49,9.49,0,0,1-9.62,9.4c-3.74,0-7.25-2.38-6.69-7.36a6.61,6.61,0,0,0,5.1-6.34A5.29,5.29,0,0,0,152,30.81c-8.27,0-11.78,13.48-11.78,20.61,0,10.08,5.32,14.84,12,14.84a16.89,16.89,0,0,0,13-6l.45.22c-6,10-15.63,15-24.12,15-9.29,0-17.22-6-17.22-17.78a28.27,28.27,0,0,1,28.43-27.52m0-1.7c-16.54,0-29.9,13.14-29.9,29.22,0,13.48,9.51,19.48,18.91,19.48,10,0,19.82-6,25.6-15.74a2,2,0,0,0,.23-1.36,1.66,1.66,0,0,0-.91-1l-.45-.22a1.61,1.61,0,0,0-.8-.23,1.85,1.85,0,0,0-1.24.56,15.44,15.44,0,0,1-11.78,5.44c-6.46,0-10.31-4.87-10.31-13.14,0-6.34,3.06-18.91,10.08-18.91,2.95,0,4,1.92,4,3.74a4.85,4.85,0,0,1-3.85,4.64,1.85,1.85,0,0,0-1.25,1.47,8.15,8.15,0,0,0,1.81,6.57,8.78,8.78,0,0,0,6.57,2.72,11.23,11.23,0,0,0,11.33-11.1c-.12-8.95-9.74-12.12-18-12.12Z"/><path class="cls-2" d="M188.46,76.22c-11.1,0-18.23-7.36-18.23-18.8,0-15.29,13.36-28.2,29.1-28.2,5.1,0,17,1,17,10.31,0,5.77-5.1,11.55-16.53,11.55a49.38,49.38,0,0,1-12-1.7v.11c-.34,5.55.91,10.2,3.4,12.8a10.06,10.06,0,0,0,7.7,2.95,16.33,16.33,0,0,0,12.34-5.67.84.84,0,0,1,.68-.34.39.39,0,0,1,.34.12l.46.22a1.17,1.17,0,0,1,.45.57.77.77,0,0,1-.11.68c-5.67,9.51-15.07,15.4-24.58,15.4Zm-.45-29h1c4.41,0,8-1.25,10.41-3.51a10.63,10.63,0,0,0,3.06-7.48c0-2.72-1.58-4.64-4.07-4.64C193.33,31.6,189.14,39.53,188,47.23Z"/><path class="cls-2" d="M199.33,30.13c6.57,0,16.08,1.59,16.08,9.4,0,4.76-4.3,10.76-15.63,10.76a49,49,0,0,1-12.23-1.81l.11-.34H189c10.31,0,14.39-6.23,14.39-11.89,0-3.29-2-5.44-4.87-5.44-6.46,0-11.1,10.19-11.55,18.69-.46,9,2.71,16.76,12,16.76a16.84,16.84,0,0,0,12.91-6l.46.22c-5.33,8.73-14.16,15-23.9,15-10.19,0-17.44-6.68-17.44-18,0-14.39,12.34-27.3,28.31-27.3m0-1.7A29.89,29.89,0,0,0,178,37.15a29,29,0,0,0-8.61,20.28c0,11.78,7.7,19.7,19.14,19.7,9.74,0,19.48-6,25.37-15.74a2,2,0,0,0,.23-1.36,1.66,1.66,0,0,0-.91-1l-.45-.22a1.6,1.6,0,0,0-.79-.23,1.65,1.65,0,0,0-1.25.56,15.18,15.18,0,0,1-11.67,5.33A9.31,9.31,0,0,1,192,61.73c-2.27-2.38-3.4-6.34-3.29-11.33a46.33,46.33,0,0,0,11.22,1.48c11.89,0,17.32-6.46,17.32-12.46-.11-6.91-6.57-11-17.89-11ZM189,46.44c1.25-7.13,5.1-13.93,9.52-13.93,1.92,0,3.17,1.47,3.17,3.74C201.71,41,198.42,46.44,189,46.44Z"/><path class="cls-2" d="M40.32,146.67c-20.73,0-30.13-14.49-30.13-27.86,0-22.2,15.75-45.19,41.91-45.19,9.85,0,19.82,4.19,19.82,13.59A11.54,11.54,0,0,1,60.71,98.77a9,9,0,0,1-7.14-3.4,7,7,0,0,1-1.25-6.12.72.72,0,0,1,.68-.56c3.4-.8,5.1-2.83,5.1-6.12,0-4-2.49-6.45-6.34-6.45-13.14,0-23.11,30.24-23.11,49.83,0,6.79,1.82,18.12,13.48,18.12A20,20,0,0,0,62.07,123.8c0-9.63-7-10.31-9.18-10.31a6.28,6.28,0,0,0-6.57,6.68,5.28,5.28,0,0,0,5.21,5.55.77.77,0,0,1,.79.8A8,8,0,0,1,50.17,133a10.36,10.36,0,0,1-7.7,3.4c-6.12,0-10.19-3.74-10.19-9.4,0-9.4,10.76-15.86,20.5-15.86,9.06,0,14.15,4.65,14.15,12.69.34,11.32-8,22.87-26.61,22.87Z"/><path class="cls-2" d="M52.21,74.3c10,0,19,4.31,19,12.8A10.66,10.66,0,0,1,60.93,97.86c-4.19,0-8.83-3.4-7.59-8.49,3.29-.8,5.78-2.84,5.78-7C59.12,77.7,56.06,75,52,75c-13.48,0-23.89,30-23.89,50.63,0,8.27,2.49,19,14.38,19a20.64,20.64,0,0,0,20.72-21.07c0-8.61-5.43-11.21-10.08-11.21-4.19,0-7.36,2.94-7.36,7.59,0,3.73,2.49,6.34,6,6.34.57,5.1-4.19,9-8.94,9-6,0-9.29-3.74-9.29-8.61,0-9.18,10.87-15.06,19.71-15.06,7.59,0,13.36,3.39,13.36,11.89,0,11.89-9,22.08-26.05,22.08-19.7,0-29.22-13.47-29.22-27.06C11.1,96.73,26.39,74.3,52.21,74.3m0-1.7A40.71,40.71,0,0,0,20.72,87.1,49.62,49.62,0,0,0,9.4,118.59c0,13.81,9.62,28.76,30.92,28.76,19.14,0,27.75-12,27.75-23.78C68.07,115.08,62.4,110,53,110c-10.08,0-21.4,6.91-21.4,16.76,0,6,4.53,10.31,11,10.31A11.33,11.33,0,0,0,51,133.31a9.28,9.28,0,0,0,2.38-7.14,1.71,1.71,0,0,0-1.7-1.47,4.4,4.4,0,0,1-4.41-4.64c0-3.51,2.26-5.89,5.66-5.89,2.49,0,8.38.9,8.38,9.51a19,19,0,0,1-19,19.37c-10.42,0-12.68-9.4-12.68-17.33,0-21.4,10.76-48.93,22.2-48.93,3.39,0,5.43,2.15,5.43,5.55,0,2.83-1.47,4.65-4.53,5.33a1.55,1.55,0,0,0-1.24,1.24,7.88,7.88,0,0,0,1.47,6.91,10.16,10.16,0,0,0,7.81,3.74,12.41,12.41,0,0,0,12-12.46c.11-10-10.19-14.5-20.5-14.5Z"/><path class="cls-2" d="M81,139.76c-2.72,0-6.46-.56-8.83-3.39-2-2.5-2.72-6.12-1.82-10.77l4.76-26.5a1,1,0,0,0-.23-1,1.39,1.39,0,0,0-1-.34,3.42,3.42,0,0,0-1,.23H72.6a.83.83,0,0,1-.57-.23l-.23-.22a.71.71,0,0,1-.22-.8c0-.22.22-.45.45-.68,2.83-1.36,8.83-3.39,13.25-3.39,2.83,0,4.65.56,5.66,1.92s1.36,3.51.68,6.57l-.79,3.51C94.91,95.7,99.66,92,106.35,92c8.6,0,11.55,5.66,11.55,10.64a12.08,12.08,0,0,1-12.57,12.12,7.89,7.89,0,0,1-6-2.49,7.35,7.35,0,0,1-1.7-5.89.85.85,0,0,1,.79-.79c2.49,0,5.32-2.49,5.32-6,0-2-.9-3.17-2.38-3.17-4.41,0-9.51,9.29-13.25,24.13-3.28,13.48-2.26,16.19-1.36,16.65a.76.76,0,0,1,.46.68,1.07,1.07,0,0,1-.23.79l-.23.23c-.11.11-.22.22-.34.22a22,22,0,0,1-5.43.68Z"/><path class="cls-2" d="M106.12,92.87c7.47,0,10.76,4.76,10.76,9.74,0,5.67-4.19,11.22-11.67,11.22-3.73,0-7.36-2.38-6.91-7.37,3.06,0,6.23-2.94,6.23-6.9,0-2.61-1.36-4.08-3.28-4.08-5.21,0-10.42,10.31-14,24.8-1.47,5.78-3.73,16.2-.9,17.67l-.23.23a18,18,0,0,1-5.09.68c-5.78,0-11.67-2.83-9.86-13.14l4.76-26.5a1.94,1.94,0,0,0-2.15-2.38,7.66,7.66,0,0,0-1.36.23l-.23-.23c3-1.47,8.83-3.29,12.91-3.29,4.76,0,6.68,1.82,5.55,7.48l-4.64,19,.34.11c5.66-21.52,11.21-27.3,19.82-27.3m0-1.7c-5.66,0-10,2.38-13.59,7.93A6.7,6.7,0,0,0,91.28,94c-1.58-2-4.41-2.26-6.34-2.26-4.53,0-10.65,2-13.59,3.4a1.77,1.77,0,0,0-.91,1.24,1.68,1.68,0,0,0,.46,1.47l.22.23a1.71,1.71,0,0,0,1.25.45,1.06,1.06,0,0,0,.57-.11,2.25,2.25,0,0,1,.79-.11c.23,0,.34.11.45.11s.11.23,0,.34l-4.64,26.39c-.91,4.87-.23,8.72,2,11.44,2,2.49,5.32,3.74,9.51,3.74a23.41,23.41,0,0,0,5.55-.68,1.82,1.82,0,0,0,.79-.46l.23-.22a1.67,1.67,0,0,0,.45-1.48,1.73,1.73,0,0,0-.9-1.24C87,136,85.73,134,89,120.51c4.08-16.2,9.17-23.45,12.34-23.45,1,0,1.59.79,1.59,2.38,0,3.06-2.38,5.21-4.53,5.21a1.72,1.72,0,0,0-1.7,1.59,8.45,8.45,0,0,0,1.92,6.56,9.05,9.05,0,0,0,6.69,2.72,12.85,12.85,0,0,0,13.36-12.91c-.11-5.77-4-11.44-12.57-11.44Z"/><path class="cls-2" d="M133.42,139.65c-11.1,0-18.23-7.36-18.23-18.8,0-15.29,13.36-28.2,29.1-28.2,5.1,0,17,1,17,10.31,0,5.77-5.1,11.55-16.53,11.55a49.38,49.38,0,0,1-12-1.7v.11c-.34,5.55.91,10.2,3.4,12.8a10.06,10.06,0,0,0,7.7,2.95A16.33,16.33,0,0,0,156.18,123a.84.84,0,0,1,.68-.34.39.39,0,0,1,.34.12l.46.22a1.17,1.17,0,0,1,.45.57.77.77,0,0,1-.11.68c-5.67,9.51-15.07,15.4-24.58,15.4Zm-.45-29h1c4.41,0,8-1.25,10.42-3.51a10.67,10.67,0,0,0,3.05-7.48c0-2.72-1.58-4.64-4.07-4.64-5.1,0-9.29,7.81-10.42,15.63Z"/><path class="cls-2" d="M144.29,93.55c6.57,0,16.08,1.59,16.08,9.4,0,4.76-4.3,10.76-15.63,10.76a49,49,0,0,1-12.23-1.81l.11-.34H134c10.31,0,14.39-6.23,14.39-11.89,0-3.29-2-5.44-4.87-5.44-6.46,0-11.1,10.19-11.56,18.69-.45,9,2.72,16.76,12,16.76a16.84,16.84,0,0,0,12.91-6l.45.23c-5.32,8.72-14.15,15-23.89,15-10.2,0-17.44-6.69-17.44-18,0-14.39,12.34-27.3,28.31-27.3m0-1.7A29.86,29.86,0,0,0,123,100.58a28.92,28.92,0,0,0-8.61,20.27c0,11.78,7.7,19.7,19.14,19.7,9.74,0,19.48-6,25.37-15.74a1.94,1.94,0,0,0,.23-1.36,1.6,1.6,0,0,0-.91-1l-.45-.22A1.57,1.57,0,0,0,157,122a1.63,1.63,0,0,0-1.25.57,15.2,15.2,0,0,1-11.67,5.32,9.31,9.31,0,0,1-7.13-2.72c-2.27-2.38-3.4-6.34-3.28-11.33a46.19,46.19,0,0,0,11.21,1.48c11.89,0,17.33-6.46,17.33-12.46C162.07,95.82,155.62,91.85,144.29,91.85Zm-10.31,18c1.25-7.13,5.1-13.93,9.52-13.93,1.92,0,3.17,1.47,3.17,3.74C146.67,104.31,143.38,109.86,134,109.86Z"/><path class="cls-2" d="M201.94,139.65c-4.87,0-8.38-1.36-10.42-3.85q-2.55-3.23-1.7-8.83c-4,8.83-8.83,12.79-15.4,12.79-9.4,0-12.8-8.49-12.8-16.42,0-13.81,12.57-30.58,28.2-30.58,3.17,0,6,1,8.61,1.82a19.71,19.71,0,0,0,6.34,1.47,6.94,6.94,0,0,0,5.44-2.72.79.79,0,0,1,.68-.34.43.43,0,0,1,.34.11.78.78,0,0,1,.45.91l-4.42,26.05c-1.7,9.74-1.24,16.19,1.14,17.1a1.34,1.34,0,0,1,.56.57.75.75,0,0,1-.23.79l-.22.23a.62.62,0,0,1-.46.22,26.18,26.18,0,0,1-6.11.68ZM190.84,95c-6.12,0-12.34,18.91-12.34,32.62,0,2.83.56,5.77,2,5.77,4.08,0,9.74-11.55,12-24.8l.91-5.1c.79-4.19.79-6.57-.12-7.7C193.11,95.48,192.54,95,190.84,95Z"/><path class="cls-2" d="M189.82,93.55c5.66,0,10.53,3.29,15,3.29a8.07,8.07,0,0,0,6.12-3l-4.42,26.05c-1.25,7.25-2,16.65,1.7,18l-.23.23a26.44,26.44,0,0,1-6,.56c-7.14,0-13.48-3.06-10.87-13.48l3.05-12.91-.34-.11c-5.32,21-11.78,26.5-19.36,26.5-8.84,0-11.9-7.81-11.9-15.51,0-13.37,12-29.68,27.3-29.68m-9.17,40.66c5.09,0,10.64-13.14,12.91-25.48l.9-5.1c1.25-6.79.57-9.51-3.51-9.51-7,0-13.14,19.71-13.14,33.41-.11,3.51.68,6.68,2.84,6.68m9.17-42.36c-7.59,0-14.95,3.74-20.73,10.42-5.21,6.12-8.38,13.93-8.38,21,0,10.64,5.21,17.21,13.59,17.21,5.89,0,10.54-3.06,14.39-9.74a10.45,10.45,0,0,0,2,5.44c2.15,2.72,6,4.19,11.1,4.19a28.14,28.14,0,0,0,6.34-.68,1.86,1.86,0,0,0,.79-.45l.23-.23a1.7,1.7,0,0,0,.45-1.59,1.88,1.88,0,0,0-1-1.24c-1.58-.57-2.38-5.89-.57-16.2l4.42-26a1.68,1.68,0,0,0-.9-1.81,1.5,1.5,0,0,0-.68-.11,1.81,1.81,0,0,0-1.25.56,5.94,5.94,0,0,1-4.76,2.38,18.59,18.59,0,0,1-6-1.47,36.89,36.89,0,0,0-9.06-1.59Zm-9.17,40.66c-.46,0-1.25-1.47-1.25-5a67,67,0,0,1,3.85-21.29c2.83-7.7,5.78-10.42,7.59-10.42,1.47,0,1.81.45,1.92.56,1,1.25.23,5.55,0,6.91l-.9,5.1c-2.49,13.7-8,24.12-11.21,24.12Z"/><path class="cls-2" d="M278.84,139.76c-4.53,0-7.81-1.24-9.85-3.62s-2.83-6.23-2-11l3.39-20.84c.23-1.24.68-4.41,0-5.21,0-.11-.11-.22-.56-.22-3.85,0-8.84,8.83-11.9,21.52-3.39,14-2.14,16.42-1.35,16.76a.77.77,0,0,1,.45.68,1.07,1.07,0,0,1-.23.79l-.22.23a.89.89,0,0,1-.46.22,46.84,46.84,0,0,1-7.13.68c-3.51,0-5.89-.79-7.25-2.6-1.81-2.27-2.15-6.12-.91-12l3.4-20.84c.23-1.24.68-4.41,0-5.21,0-.11-.11-.22-.56-.22-3.86,0-8.84,8.83-11.9,21.52-3.39,14-2.15,16.42-1.36,16.76a.76.76,0,0,1,.46.68.93.93,0,0,1-.23.79l-.23.23a.88.88,0,0,1-.45.23,48.17,48.17,0,0,1-7.14.68c-3.62,0-5.88-.8-7.36-2.61-1.81-2.26-2.26-5.89-1.24-11.55l4.75-26.5a1,1,0,0,0-.22-1,1.38,1.38,0,0,0-1-.34,3.39,3.39,0,0,0-1,.22h-.23a.9.9,0,0,1-.57-.22l-.22-.23a.7.7,0,0,1-.23-.79c0-.23.23-.46.45-.68,2.84-1.36,8.84-3.4,13.25-3.4,2.84,0,4.65.57,5.67,1.93s1.36,3.51.68,6.56l-1.25,5.1c4.31-9.29,9.86-13.7,16.88-13.7,3.73,0,6.45,1,8,3.17,1.81,2.38,2.26,5.89,1.47,10.64,4.31-9.4,9.85-13.81,17-13.81,3.62,0,6.34,1,8,3.06,2.72,3.28,2.27,8.38,1.59,12.34l-2,11.89c-1.7,9.74-1.25,16.2,1.13,17.11a1.4,1.4,0,0,1,.57.56.74.74,0,0,1-.23.79l-.23.23a.6.6,0,0,1-.45.23,26.75,26.75,0,0,1-7.13,1Z"/><path class="cls-2" d="M276.8,93.55c10.53,0,9.85,8.61,8.83,14.5l-2,11.89c-1.25,7.25-2,16.65,1.69,18l-.22.23a28.34,28.34,0,0,1-6.12.68c-7,0-12.8-3.06-11.1-13.6l3.4-20.83c.57-4,.57-6.35-1.47-6.35-4.76,0-9.63,9.63-12.8,22.2-1.47,5.78-3.74,16.31-.91,17.78l-.22.23a44.44,44.44,0,0,1-7,.68c-6.68,0-9.62-2.95-7.36-13.59l3.4-20.84c.57-4,.57-6.34-1.47-6.34-4.76,0-9.63,9.62-12.8,22.19-1.47,5.78-3.74,16.31-.91,17.79l-.22.22a43.28,43.28,0,0,1-7,.68c-6.68,0-9.62-2.83-7.81-13.14l4.76-26.5a2,2,0,0,0-2.15-2.38,8.7,8.7,0,0,0-1.36.23l-.23-.23a34.94,34.94,0,0,1,12.91-3.28c4.76,0,6.68,1.81,5.55,7.47l-4.64,19,.34.11c5.66-21.52,13.13-26.5,20.72-26.5,10.54,0,9.63,9,8.27,14.5l-2.94,12,.34.12c5.43-22,13-27,20.61-27m0-1.7c-6.34,0-11.55,3.4-15.63,10.42a11.14,11.14,0,0,0-2-6.91c-1.81-2.37-4.75-3.51-8.72-3.51-5.89,0-10.65,2.83-14.61,8.72.45-2.94.23-5.09-1-6.56-1.58-2-4.42-2.27-6.34-2.27-4.53,0-10.65,2-13.59,3.4a1.77,1.77,0,0,0-.91,1.24,1.7,1.7,0,0,0,.46,1.48l.22.22a1.71,1.71,0,0,0,1.25.46,1,1,0,0,0,.56-.12,2.3,2.3,0,0,1,.8-.11c.22,0,.34.11.45.11s.11.23,0,.34L213,125.15c-1,6-.57,9.86,1.47,12.35s5.66,2.94,8,2.94a52.24,52.24,0,0,0,7.36-.68,1.44,1.44,0,0,0,.91-.45l.22-.23a1.68,1.68,0,0,0,.46-1.47,1.79,1.79,0,0,0-.91-1.25c-.23-.22-1.47-2.26,1.81-15.74s8.16-20.84,11.1-20.84c.12.34.23,1.47-.22,4.42l-3.4,20.72c-1.25,6.23-.91,10.2,1.13,12.69s5.55,2.94,7.93,2.94a50.78,50.78,0,0,0,7.36-.68,1.4,1.4,0,0,0,.91-.45l.23-.23a1.69,1.69,0,0,0,.45-1.47,1.75,1.75,0,0,0-.91-1.24c-.22-.23-1.47-2.27,1.81-15.75s8.16-20.84,11.1-20.84c.12.34.23,1.48-.22,4.42l-3.4,20.84c-.79,5.1,0,8.95,2.26,11.67s5.78,4,10.54,4a33.08,33.08,0,0,0,6.45-.68,3.5,3.5,0,0,0,.91-.45l.23-.23a1.69,1.69,0,0,0,.45-1.58,1.9,1.9,0,0,0-1-1.25c-1.59-.57-2.38-5.89-.57-16.2l2-11.89c.79-4.19,1.25-9.51-1.81-13.14-2.15-2.49-5.1-3.51-8.95-3.51Z"/><path class="cls-3" d="M85.28,77.36A1,1,0,0,1,84.6,77a1.62,1.62,0,0,1-.23-.68l.12-.56a.82.82,0,0,1,.79-.68c7.81,0,8.72-3.51,10.3-13.82L100,32.63c1.36-8.84,9-12.35,15.29-13.71a69.53,69.53,0,0,1-9.29-3.4c-5-2-9.62-4.07-14.61-4.07-2.37,0-8,.56-8,5.66,0,4.08,3.63,4.42,4.65,4.42a7.23,7.23,0,0,0,5.66-3.06.79.79,0,0,1,.68-.34.42.42,0,0,1,.34.11c4.08,1.81,6.12,5.32,5.21,9.29a12.4,12.4,0,0,1-12,9.06c-6.56,0-13.25-4.87-13.25-12.91,0-8.38,7-14.84,16.43-14.84,5.55,0,11,2.27,16.19,4.42s9.86,4.08,14.61,4.08c1.25,0,1.81-.68,1.81-1.25a1,1,0,0,0-1-1,2.74,2.74,0,0,0-1.47.45.64.64,0,0,1-.45.12h-.23a1.16,1.16,0,0,1-.56-.46,5.08,5.08,0,0,1-.12-5.21,5.39,5.39,0,0,1,4.65-2.6c2.6,0,5.43,1.81,5.43,5,0,3-1.81,4.08-3.73,5.33-2.72,1.81-6.12,4.07-7.48,12.57l-5.32,33.63c-.79,5.21-.68,7.93.56,9.4.91,1.14,2.61,1.59,5.44,1.59a1,1,0,0,1,.68.34,1.67,1.67,0,0,1,.23.68l-.11.57a.84.84,0,0,1-.8.68H85.28v.22Z"/><path class="cls-2" d="M124.81,8.38c2.15,0,4.53,1.47,4.53,4.08,0,6.12-8.83,2.83-11.21,17.78L112.8,63.88c-1.47,8.95-.11,12,6.91,12l-.11.57H85.28l.12-.57c8.83,0,9.62-4.75,11.21-14.49L101,32.73c1.69-11.1,13.93-13.48,20.61-13.81V18.8c-10.53,0-19.71-8.27-30.13-8.27-5.21,0-8.94,2.16-8.94,6.57,0,4,2.94,5.33,5.54,5.33A8,8,0,0,0,94.46,19c9.85,4.42,3.39,16.76-6.35,16.76A12.26,12.26,0,0,1,75.66,23.67c0-7.81,6.45-13.93,15.51-13.93,10.65,0,20.84,8.38,30.81,8.38,1.81,0,2.72-1.13,2.72-2.15a1.91,1.91,0,0,0-1.93-1.92,5,5,0,0,0-1.92.56c-1.82-3.28.9-6.23,4-6.23m0-1.7a6.39,6.39,0,0,0-5.44,3,6.18,6.18,0,0,0,0,6.11,2.77,2.77,0,0,0,.8.8c-4.08-.46-8.16-2.16-12.46-3.85C102.38,10.53,97,8.27,91.17,8.27,81.32,8.27,74,15,74,23.9c0,8.61,7.13,13.81,14.15,13.81a13.58,13.58,0,0,0,11.44-6.45,4.9,4.9,0,0,0-.22,1.25L94.91,61.16C93.32,71.35,92.53,74.3,85.39,74.3a1.82,1.82,0,0,0-1.7,1.47l-.11.57A1.54,1.54,0,0,0,84,77.69a1.84,1.84,0,0,0,1.25.57H119.6a1.82,1.82,0,0,0,1.7-1.47l.11-.57a1.57,1.57,0,0,0-.45-1.36,1.83,1.83,0,0,0-1.25-.56c-3.28,0-4.3-.8-4.76-1.25-1-1.24-1.13-4-.45-8.72l5.32-33.64c1.25-8.15,4.53-10.3,7.14-12C129,17.33,131,16,131,12.57a6,6,0,0,0-6.23-5.89ZM88,20.84c-1.47,0-3.85-.45-3.85-3.62,0-4.19,4.53-4.87,7.25-4.87,4.87,0,9.4,1.92,14.27,4,2.15.91,4.3,1.81,6.46,2.49-4.31,1.36-8.73,3.85-11.22,8.38.57-4.07-1.47-7.7-5.77-9.62a1.39,1.39,0,0,0-.68-.12,1.62,1.62,0,0,0-1.36.68A6.62,6.62,0,0,1,88,20.84Zm33.3-4.19a.81.81,0,0,0,.45-.23,1.68,1.68,0,0,1,1-.34c.11,0,.23,0,.23.12s-.34.45-1,.45Z"/><path class="cls-3" d="M139.42,78c-8.95,0-18.12-5.77-18.12-18.69,0-15.63,13-28.31,29.1-28.31,7.82,0,17,2.94,17,11.33A10.35,10.35,0,0,1,157,52.67a7.6,7.6,0,0,1-5.89-2.38,7.1,7.1,0,0,1-1.58-6,.73.73,0,0,1,.68-.68,5.77,5.77,0,0,0,4.53-5.44,4.51,4.51,0,0,0-4.87-4.64c-7.59,0-10.87,13-10.87,19.71,0,8.72,4.19,13.93,11.21,13.93a16.3,16.3,0,0,0,12.34-5.66.82.82,0,0,1,.68-.34.41.41,0,0,1,.34.11l.46.23a1.14,1.14,0,0,1,.45.56.77.77,0,0,1-.11.68C158.56,72.15,149.05,78,139.42,78Z"/><path class="cls-2" d="M150.41,31.83c6,0,16.08,2,16.08,10.42a9.49,9.49,0,0,1-9.63,9.4c-3.73,0-7.24-2.38-6.68-7.36a6.62,6.62,0,0,0,5.1-6.34,5.29,5.29,0,0,0-5.66-5.44c-8.27,0-11.78,13.48-11.78,20.61,0,10.08,5.32,14.84,12,14.84a16.91,16.91,0,0,0,13-6l.45.22c-6,10-15.63,14.95-24.13,14.95-9.28,0-17.21-6-17.21-17.78a28.35,28.35,0,0,1,28.43-27.52m0-1.7c-16.54,0-29.9,13.14-29.9,29.22,0,13.48,9.51,19.48,18.91,19.48,10,0,19.82-6,25.6-15.74a1.94,1.94,0,0,0,.23-1.36,1.66,1.66,0,0,0-.91-1l-.45-.22a1.61,1.61,0,0,0-.8-.23,1.85,1.85,0,0,0-1.24.56,15.44,15.44,0,0,1-11.78,5.44c-6.46,0-10.31-4.87-10.31-13.14,0-6.34,3.06-18.91,10.08-18.91,2.95,0,4,1.93,4,3.74A4.84,4.84,0,0,1,150,42.59a1.83,1.83,0,0,0-1.24,1.47,8.15,8.15,0,0,0,1.81,6.57,8.78,8.78,0,0,0,6.57,2.72,11.23,11.23,0,0,0,11.33-11.1C168.19,33.3,158.68,30.13,150.41,30.13Z"/><path class="cls-3" d="M186,78c-11.1,0-18.23-7.36-18.23-18.8C167.74,44,181.1,31,196.84,31c5.1,0,17,1,17,10.31,0,5.77-5.1,11.55-16.53,11.55a49.38,49.38,0,0,1-12-1.7v.11c-.34,5.55.91,10.2,3.4,12.8a10.06,10.06,0,0,0,7.7,3,16.37,16.37,0,0,0,12.35-5.67.82.82,0,0,1,.68-.34.41.41,0,0,1,.34.12l.45.22a1.11,1.11,0,0,1,.45.57c.12.23,0,.45-.11.68C205,72.15,195.48,78,186,78Zm-.34-29h1c4.42,0,8-1.25,10.42-3.51a10.68,10.68,0,0,0,3.06-7.48c0-2.72-1.59-4.64-4.08-4.64-5.21,0-9.4,7.81-10.42,15.63Z"/><path class="cls-2" d="M196.84,31.83c6.57,0,16.08,1.59,16.08,9.4,0,4.76-4.3,10.76-15.63,10.76a49,49,0,0,1-12.23-1.81l.12-.34h1.35c10.31,0,14.39-6.23,14.39-11.89,0-3.29-2-5.44-4.87-5.44-6.46,0-11.1,10.19-11.55,18.69C184,60.15,187.21,68,196.5,68a16.84,16.84,0,0,0,12.91-6l.46.22c-5.33,8.72-14.16,14.95-23.9,14.95-10.19,0-17.44-6.68-17.44-18,.11-14.39,12.34-27.3,28.31-27.3m0-1.7a29.89,29.89,0,0,0-21.29,8.72,29,29,0,0,0-8.61,20.28c0,11.77,7.7,19.7,19.14,19.7,9.74,0,19.48-6,25.37-15.74a2,2,0,0,0,.23-1.36,1.66,1.66,0,0,0-.91-1l-.45-.23a1.67,1.67,0,0,0-.79-.22,1.62,1.62,0,0,0-1.25.56,15.18,15.18,0,0,1-11.67,5.33,9.31,9.31,0,0,1-7.13-2.72c-2.27-2.38-3.4-6.34-3.29-11.33a46.33,46.33,0,0,0,11.22,1.48c11.89,0,17.33-6.46,17.33-12.46,0-6.91-6.58-11-17.9-11Zm-10.31,18c1.25-7.13,5.1-13.93,9.52-13.93,1.92,0,3.17,1.47,3.17,3.74C199.22,42.7,195.93,48.14,186.53,48.14Z"/><path class="cls-3" d="M37.94,148.37c-20.73,0-30.13-14.49-30.13-27.86,0-22.2,15.75-45.19,41.91-45.19,9.85,0,19.82,4.19,19.82,13.59a11.54,11.54,0,0,1-11.21,11.56,9,9,0,0,1-7.14-3.4A7,7,0,0,1,49.94,91a.72.72,0,0,1,.68-.56c3.4-.8,5.1-2.83,5.1-6.12,0-4-2.49-6.45-6.34-6.45-13.14,0-23.11,30.24-23.11,49.83,0,6.79,1.82,18.12,13.48,18.12A20,20,0,0,0,59.69,125.5c0-9.63-7-10.31-9.18-10.31a6.28,6.28,0,0,0-6.57,6.68,5.28,5.28,0,0,0,5.21,5.55.78.78,0,0,1,.8.8,8.09,8.09,0,0,1-2.16,6.45,10.36,10.36,0,0,1-7.7,3.4c-6.11,0-10.19-3.74-10.19-9.4,0-9.4,10.76-15.86,20.5-15.86,9.06,0,14.16,4.65,14.16,12.69C64.78,136.82,56.51,148.37,37.94,148.37Z"/><path class="cls-2" d="M49.72,76.11c10,0,19,4.31,19,12.8A10.66,10.66,0,0,1,58.44,99.67c-4.19,0-8.84-3.4-7.59-8.49,3.28-.8,5.78-2.84,5.78-7,0-4.64-3.06-7.36-7.14-7.36-13.48,0-23.89,30-23.89,50.63,0,8.27,2.49,19,14.38,19A20.63,20.63,0,0,0,60.7,125.38c0-8.61-5.43-11.21-10.08-11.21-4.19,0-7.36,2.94-7.36,7.59,0,3.73,2.49,6.34,6,6.34.57,5.1-4.19,9-8.94,9-6,0-9.29-3.74-9.29-8.61,0-9.18,10.87-15.06,19.71-15.06,7.59,0,13.36,3.39,13.36,11.89,0,11.89-8.95,22.08-26,22.08-19.7,0-29.22-13.47-29.22-27.06C8.61,98.42,24,76.11,49.72,76.11m0-1.7a40.71,40.71,0,0,0-31.49,14.5A49.62,49.62,0,0,0,6.91,120.4c0,13.81,9.63,28.76,30.92,28.76,19.14,0,27.75-12,27.75-23.78,0-8.49-5.67-13.59-15.07-13.59-10.08,0-21.4,6.91-21.4,16.76,0,6,4.53,10.31,11,10.31a11.33,11.33,0,0,0,8.38-3.74A9.27,9.27,0,0,0,50.85,128a1.71,1.71,0,0,0-1.7-1.48,4.4,4.4,0,0,1-4.41-4.64c0-3.51,2.26-5.89,5.66-5.89,2.49,0,8.38.9,8.38,9.51a19,19,0,0,1-19,19.37c-10.42,0-12.68-9.4-12.68-17.33,0-21.4,10.76-48.93,22.2-48.93,3.39,0,5.43,2.15,5.43,5.55,0,2.83-1.47,4.65-4.53,5.33a1.55,1.55,0,0,0-1.24,1.24,7.88,7.88,0,0,0,1.47,6.91,10.14,10.14,0,0,0,7.81,3.74,12.41,12.41,0,0,0,12-12.46c.23-10.08-10.19-14.5-20.5-14.5Z"/><path class="cls-3" d="M78.6,141.46c-2.72,0-6.46-.56-8.84-3.39-2-2.5-2.71-6.12-1.81-10.76l4.76-26.51a1,1,0,0,0-.23-1,1.39,1.39,0,0,0-1-.34,3.42,3.42,0,0,0-1,.23h-.22a.83.83,0,0,1-.57-.23l-.23-.22a.71.71,0,0,1-.22-.8c0-.22.22-.45.45-.68,2.83-1.35,8.83-3.39,13.25-3.39,2.83,0,4.64.56,5.66,1.92s1.36,3.51.68,6.57l-.79,3.51C92.53,97.4,97.28,93.67,104,93.67c8.6,0,11.55,5.66,11.55,10.64A12.08,12.08,0,0,1,103,116.43a7.92,7.92,0,0,1-6-2.49,7.35,7.35,0,0,1-1.7-5.89.85.85,0,0,1,.79-.79c2.49,0,5.32-2.5,5.32-6,0-2-.9-3.17-2.38-3.17-4.41,0-9.51,9.29-13.25,24.13-3.28,13.47-2.26,16.19-1.36,16.64a.77.77,0,0,1,.46.68,1.08,1.08,0,0,1-.23.8l-.23.22c-.11.12-.22.23-.34.23a23.13,23.13,0,0,1-5.43.68Z"/><path class="cls-2" d="M103.63,94.57c7.47,0,10.76,4.76,10.76,9.74,0,5.67-4.19,11.22-11.67,11.22-3.73,0-7.36-2.38-6.91-7.37,3.06,0,6.23-2.94,6.23-6.9,0-2.61-1.36-4.08-3.28-4.08-5.21,0-10.42,10.3-14.05,24.8-1.47,5.78-3.73,16.2-.9,17.67l-.23.23a18,18,0,0,1-5.09.68c-5.78,0-11.67-2.83-9.86-13.14l4.76-26.5a1.94,1.94,0,0,0-2.15-2.38,8.49,8.49,0,0,0-1.36.22l-.23-.22c2.95-1.47,8.84-3.29,12.91-3.29,4.76,0,6.68,1.82,5.55,7.48l-4.64,19,.34.11c5.66-21.52,11.33-27.3,19.82-27.3m0-1.7c-5.66,0-10,2.38-13.59,7.93a6.63,6.63,0,0,0-1.25-5.09c-1.58-2-4.41-2.27-6.34-2.27-4.53,0-10.65,2-13.59,3.4A1.77,1.77,0,0,0,68,98.08a1.71,1.71,0,0,0,.46,1.48l.22.22a1.72,1.72,0,0,0,1.25.46,1,1,0,0,0,.57-.12,2.25,2.25,0,0,1,.79-.11c.23,0,.34.11.45.11s.11.23,0,.34l-4.64,26.39c-.91,4.87-.23,8.72,2,11.44,2,2.49,5.32,3.74,9.51,3.74a23.41,23.41,0,0,0,5.55-.68,1.82,1.82,0,0,0,.79-.46l.23-.22a1.67,1.67,0,0,0,.45-1.48,1.75,1.75,0,0,0-.9-1.24c-.23-.23-1.48-2.27,1.81-15.74C90.61,106,95.7,98.76,98.87,98.76c1,0,1.59.8,1.59,2.38,0,3.06-2.38,5.21-4.53,5.21a1.72,1.72,0,0,0-1.7,1.59,8.5,8.5,0,0,0,1.92,6.57,9.08,9.08,0,0,0,6.69,2.71,12.85,12.85,0,0,0,13.36-12.91C116.09,98.65,112.24,92.87,103.63,92.87Z"/><path class="cls-3" d="M131,141.35c-11.1,0-18.23-7.36-18.23-18.8,0-15.29,13.36-28.2,29.1-28.2,5.1,0,17,1,17,10.31,0,5.77-5.1,11.55-16.53,11.55a49.38,49.38,0,0,1-12-1.7v.11c-.34,5.55.91,10.2,3.4,12.8a10.06,10.06,0,0,0,7.7,3,16.33,16.33,0,0,0,12.34-5.67.84.84,0,0,1,.68-.34.39.39,0,0,1,.34.12l.46.22a1.17,1.17,0,0,1,.45.57.77.77,0,0,1-.11.68c-5.67,9.51-15.18,15.4-24.58,15.4Zm-.45-29h1c4.41,0,8-1.25,10.42-3.51a10.67,10.67,0,0,0,3.05-7.48c0-2.72-1.58-4.64-4.07-4.64-5.1,0-9.4,7.93-10.42,15.63Z"/><path class="cls-2" d="M141.8,95.25c6.57,0,16.08,1.59,16.08,9.4,0,4.76-4.3,10.76-15.63,10.76A49,49,0,0,1,130,113.6l.11-.34h1.36c10.31,0,14.39-6.23,14.39-11.89,0-3.29-2-5.44-4.87-5.44-6.46,0-11.1,10.19-11.56,18.69-.45,8.95,2.72,16.76,12,16.76a16.84,16.84,0,0,0,12.91-6l.45.22c-5.32,8.73-14.15,15-23.89,15-10.2,0-17.44-6.68-17.44-18,.11-14.39,12.34-27.3,28.31-27.3m0-1.7a29.89,29.89,0,0,0-21.29,8.72,29,29,0,0,0-8.61,20.28c0,11.77,7.7,19.7,19.14,19.7,9.74,0,19.48-6,25.37-15.74a2,2,0,0,0,.23-1.36,1.6,1.6,0,0,0-.91-1l-.45-.22a1.57,1.57,0,0,0-.79-.23,1.65,1.65,0,0,0-1.25.56,15.17,15.17,0,0,1-11.66,5.33,9.32,9.32,0,0,1-7.14-2.72c-2.26-2.38-3.4-6.34-3.28-11.33A46.19,46.19,0,0,0,142.37,117c11.89,0,17.33-6.46,17.33-12.46,0-6.91-6.58-11-17.9-11Zm-10.31,18c1.25-7.13,5.1-13.93,9.52-13.93,1.92,0,3.17,1.47,3.17,3.74.11,4.76-3.29,10.19-12.69,10.19Z"/><path class="cls-3" d="M199.45,141.35c-4.87,0-8.38-1.36-10.42-3.85q-2.55-3.23-1.7-8.83c-4,8.83-8.83,12.8-15.4,12.8-9.4,0-12.8-8.5-12.8-16.43,0-13.81,12.57-30.58,28.2-30.58,3.17,0,6,1,8.61,1.82a19.71,19.71,0,0,0,6.34,1.47A6.94,6.94,0,0,0,207.72,95a.79.79,0,0,1,.68-.34.43.43,0,0,1,.34.11.78.78,0,0,1,.45.91l-4.42,26.05c-1.7,9.74-1.24,16.19,1.13,17.1a1.31,1.31,0,0,1,.57.57.75.75,0,0,1-.23.79l-.22.23a.62.62,0,0,1-.46.22A24.89,24.89,0,0,1,199.45,141.35Zm-11-44.62c-6.11,0-12.34,18.91-12.34,32.62,0,2.83.56,5.77,2,5.77,4.07,0,9.74-11.55,12-24.8l.91-5.1c.79-4.19.79-6.57-.11-7.7a3.16,3.16,0,0,0-2.5-.79Z"/><path class="cls-2" d="M187.44,95.25c5.66,0,10.53,3.29,14.95,3.29a8.07,8.07,0,0,0,6.12-3l-4.42,26.05c-1.25,7.25-2,16.65,1.7,18l-.23.23a26.5,26.5,0,0,1-6,.56c-7.14,0-13.48-3.06-10.88-13.48l3.06-12.91-.34-.11c-5.32,20.95-11.78,26.5-19.36,26.5-8.84,0-11.9-7.81-11.9-15.51-.11-13.26,11.9-29.68,27.3-29.68M178.15,136c5.1,0,10.65-13.13,12.91-25.48l.91-5.09c1.25-6.8.57-9.52-3.51-9.52-7,0-13.14,19.71-13.14,33.41-.11,3.4.68,6.68,2.83,6.68m9.29-42.47c-7.59,0-14.95,3.74-20.73,10.42-5.21,6.12-8.38,13.93-8.38,21,0,10.64,5.21,17.21,13.59,17.21,5.89,0,10.54-3.06,14.39-9.74a10.45,10.45,0,0,0,2,5.44c2.15,2.72,6,4.19,11.09,4.19a28.17,28.17,0,0,0,6.35-.68,1.88,1.88,0,0,0,.79-.46l.23-.22a1.71,1.71,0,0,0,.45-1.59,1.88,1.88,0,0,0-1-1.24c-1.59-.57-2.38-5.89-.57-16.2l4.42-26a1.68,1.68,0,0,0-.91-1.81,1.46,1.46,0,0,0-.68-.11,1.8,1.8,0,0,0-1.24.56,5.94,5.94,0,0,1-4.76,2.38,18.59,18.59,0,0,1-6-1.47c-2.83-.57-5.78-1.59-9.06-1.59Zm-9.29,40.78c-.45,0-1.24-1.48-1.24-5a67,67,0,0,1,3.85-21.29c2.83-7.7,5.77-10.42,7.59-10.42,1.47,0,1.81.45,1.92.57,1,1.24.23,5.55,0,6.91l-.91,5.09c-2.37,13.59-7.92,24.13-11.21,24.13Z"/><path class="cls-3" d="M276.46,141.46c-4.53,0-7.81-1.24-9.85-3.62s-2.83-6.23-2-11L268,106c.23-1.24.68-4.41,0-5.21,0-.11-.11-.22-.56-.22-3.85,0-8.84,8.83-11.89,21.52-3.4,14-2.16,16.42-1.36,16.76a.77.77,0,0,1,.45.68,1.07,1.07,0,0,1-.23.79l-.22.23a.89.89,0,0,1-.46.22,46.84,46.84,0,0,1-7.13.68c-3.51,0-5.89-.79-7.25-2.6-1.81-2.27-2.15-6.12-.9-12L241.8,106c.23-1.24.68-4.41,0-5.21,0-.11-.11-.22-.56-.22-3.86,0-8.84,8.83-11.9,21.52-3.39,14-2.15,16.42-1.35,16.76a.77.77,0,0,1,.45.68.94.94,0,0,1-.23.79l-.23.23a.88.88,0,0,1-.45.23,48.17,48.17,0,0,1-7.13.68c-3.63,0-5.89-.8-7.37-2.61-1.81-2.26-2.26-5.89-1.24-11.55l4.75-26.5a1,1,0,0,0-.22-1,1.38,1.38,0,0,0-1-.34,3.39,3.39,0,0,0-1,.22h-.23a.87.87,0,0,1-.56-.22l-.23-.23a.7.7,0,0,1-.23-.79c0-.23.23-.46.46-.68,2.83-1.36,8.83-3.4,13.25-3.4,2.83,0,4.64.57,5.66,1.93s1.36,3.51.68,6.56l-1.25,5.1c4.31-9.29,9.86-13.7,16.88-13.7,3.74,0,6.46,1,8,3.17,1.81,2.38,2.27,5.89,1.47,10.64,4.31-9.4,9.86-13.81,17-13.81,3.63,0,6.34,1,8,3.06,2.72,3.28,2.27,8.38,1.59,12.34l-2,11.89c-1.7,9.74-1.25,16.2,1.13,17.11a1.34,1.34,0,0,1,.57.56.74.74,0,0,1-.23.79l-.22.23a.62.62,0,0,1-.46.23,27.76,27.76,0,0,1-7.13,1Z"/><path class="cls-2" d="M274.31,95.25c10.53,0,9.85,8.61,8.83,14.5l-2,11.89c-1.24,7.25-2,16.65,1.7,18l-.22.23a28.34,28.34,0,0,1-6.12.68c-7,0-12.8-3.06-11.1-13.6l3.4-20.83c.56-4,.56-6.35-1.48-6.35-4.75,0-9.62,9.63-12.79,22.2-1.48,5.78-3.74,16.31-.91,17.78l-.23.23a44.22,44.22,0,0,1-7,.68c-6.68,0-9.62-2.95-7.36-13.59l3.4-20.84c.56-4,.56-6.34-1.47-6.34-4.76,0-9.63,9.62-12.8,22.19-1.47,5.78-3.74,16.31-.91,17.78l-.22.23a44.44,44.44,0,0,1-7,.68c-6.68,0-9.62-2.83-7.81-13.14l4.76-26.5a2,2,0,0,0-2.16-2.38,8.61,8.61,0,0,0-1.35.23l-.23-.23a34.94,34.94,0,0,1,12.91-3.28c4.76,0,6.68,1.81,5.55,7.47L227,122l.34.11c5.66-21.52,13.13-26.5,20.72-26.5,10.53,0,9.63,9,8.27,14.5l-2.94,12,.34.12c5.55-22,13-27,20.61-27m0-1.7c-6.34,0-11.55,3.4-15.63,10.42a11.12,11.12,0,0,0-2-6.91c-1.81-2.38-4.76-3.51-8.72-3.51-5.89,0-10.65,2.83-14.61,8.72.45-2.94.23-5.09-1-6.57-1.59-2-4.42-2.26-6.34-2.26-4.53,0-10.65,2-13.59,3.4a1.72,1.72,0,0,0-.91,1.24,1.67,1.67,0,0,0,.45,1.47l.23.23a1.7,1.7,0,0,0,1.25.45,1,1,0,0,0,.56-.11,2.3,2.3,0,0,1,.8-.11c.22,0,.33.11.45.11s.11.23,0,.34l-4.65,26.39c-1,6-.56,9.85,1.48,12.35s5.66,2.94,8,2.94a52.37,52.37,0,0,0,7.36-.68,1.39,1.39,0,0,0,.9-.45l.23-.23a1.65,1.65,0,0,0,.45-1.47,1.75,1.75,0,0,0-.9-1.25c-.23-.22-1.47-2.26,1.81-15.74s8.16-20.84,11.1-20.84c.11.34.23,1.47-.23,4.42l-3.39,20.72c-1.25,6.23-.91,10.2,1.13,12.69s5.55,2.94,7.93,2.94a50.9,50.9,0,0,0,7.36-.68,1.35,1.35,0,0,0,.9-.45l.23-.23a1.65,1.65,0,0,0,.45-1.47,1.73,1.73,0,0,0-.9-1.24c-.23-.23-1.47-2.27,1.81-15.75s8.16-20.84,11.1-20.84c.11.34.23,1.48-.23,4.42l-3.39,20.84c-.8,5.1,0,9,2.26,11.67s5.78,4,10.53,4a33.26,33.26,0,0,0,6.46-.68,3.5,3.5,0,0,0,.91-.45l.22-.23a1.68,1.68,0,0,0,.46-1.59,1.91,1.91,0,0,0-1-1.24c-1.59-.57-2.38-5.89-.57-16.2l2-11.89c.79-4.19,1.24-9.51-1.81-13.14-2-2.37-5-3.51-8.95-3.51Z"/></g></g></svg>