<svg xmlns="http://www.w3.org/2000/svg" viewBox="0 0 3192.31 2432.99"><defs><style>.cls-1{fill:#333;}.cls-2{fill:#f4b77a;}.cls-3{fill:#8c6239;}.cls-4{fill:#754c24;}.cls-5{fill:#c15f66;}.cls-6{fill:#93212a;}.cls-7{fill:#1a1a1a;}.cls-8{fill:#fea0ae;}.cls-9{fill:#b8fffd;}.cls-10{fill:#fff;}.cls-11{fill:#666;}.cls-12{fill:#ccc;}.cls-13{opacity:0.3;}</style></defs><title>icecar</title><g id="Warstwa_2" data-name="Warstwa 2"><g id="Layer_1" data-name="Layer 1"><rect class="cls-1" x="3145.79" y="2040.44" width="45.56" height="106.87" rx="13.13"/><path d="M3158.92,2148.26h19.31a14.09,14.09,0,0,0,14.08-14.08v-80.61a14.09,14.09,0,0,0-14.08-14.08h-19.31a14.1,14.1,0,0,0-14.09,14.08v80.61A14.1,14.1,0,0,0,3158.92,2148.26Zm19.31-106.86a12.18,12.18,0,0,1,12.17,12.17v80.61a12.18,12.18,0,0,1-12.17,12.17h-19.31a12.19,12.19,0,0,1-12.18-12.17v-80.61a12.19,12.19,0,0,1,12.18-12.17Z"/><ellipse class="cls-2" cx="3141.41" cy="1787.21" rx="49.95" ry="81.93"/><path d="M3141.41,1870.1c28.06,0,50.9-37.19,50.9-82.89s-22.84-82.89-50.9-82.89-50.91,37.19-50.91,82.89S3113.34,1870.1,3141.41,1870.1Zm0-163.87c27,0,49,36.33,49,81s-22,81-49,81-49-36.33-49-81S3114.39,1706.23,3141.41,1706.23Z"/><ellipse class="cls-2" cx="50.9" cy="2203.25" rx="49.95" ry="53.29"/><path d="M50.9,2257.49c28.07,0,50.9-24.33,50.9-54.24S79,2149,50.9,2149,0,2173.34,0,2203.25,22.84,2257.49,50.9,2257.49Zm0-106.58c27,0,49,23.48,49,52.34s-22,52.33-49,52.33-49-23.48-49-52.33S23.89,2150.91,50.9,2150.91Z"/><path class="cls-3" d="M1516.91,735.91h0a51.16,51.16,0,0,0,0-72.37L1102.47,249.09l-72.38,72.38,414.45,414.44A51.16,51.16,0,0,0,1516.91,735.91Z"/><path class="cls-4" d="M1030.09,321.46l414.45,414.45a51.24,51.24,0,0,0,80.85-11.17,51.21,51.21,0,0,1-61.2-8.47L1049.74,301.82Z"/><path class="cls-5" d="M841,349.47,994,502.54c14-2.3,39.93-8.41,72.65-24.45,50.11-24.56,71.72-83.51,73.69-140.49s-1-69.76,33.4-102.18S1278.45,208,1278.45,208l-148-148C1050.52-20,920.9-20,841,60a204.71,204.71,0,0,0,0,289.51Z"/><path class="cls-5" d="M918.74,427.25l136.5,136.49c50.59,50.6,119.07,64.13,153,30.24L1375,427.21c33.89-33.9,20.35-102.38-30.24-153l-144.09-144.1s-88.82-23.49-123.69,8.46-28,48.58-16.46,119.12-.83,138.68-57.23,157C966.44,426.61,935.66,427.83,918.74,427.25Z"/><path class="cls-6" d="M841,349.47,994,502.54c12.25-2,33.58-6.92,60.58-18.83l-173.95-174a204.74,204.74,0,0,1-18.5-268.29,204.74,204.74,0,0,0-21.21,308Z"/><path class="cls-6" d="M918.74,427.25l136.5,136.5c50.59,50.58,119.07,64.12,153,30.23l39.72-39.71c-33.9,33.89-102.38,20.35-153-30.24L989.62,418.7A246,246,0,0,1,918.74,427.25Z"/><polygon points="3158.05 2194.65 24.61 2194.65 24.61 1886.23 3045.9 1886.23 3158.05 2194.65"/><path class="cls-7" d="M2453.56,2117.56c0,174.21,141.22,315.43,315.44,315.43s315.45-141.22,315.45-315.43a314.52,314.52,0,0,0-101-231.33H2554.54A314.58,314.58,0,0,0,2453.56,2117.56Z"/><path class="cls-8" d="M24.62,793.54V2194.65H213.89l140.19-308.42H895.6l108.65,308.42h1385.5l109.36-308.42H3045.9l112.15,308.42V1704.1a76.15,76.15,0,0,0-53.71-72.78l-218.75-67.5a105.25,105.25,0,0,1-71.19-75.51L2636.3,761.63a134,134,0,0,0-130.21-102.14H158.67a134,134,0,0,0-134,134Z"/><path d="M3159,2200.08v-496a76.73,76.73,0,0,0-54.38-73.69l-218.76-67.5a104.81,104.81,0,0,1-70.54-74.83l-178.1-726.67a135,135,0,0,0-131.14-102.88H158.67a135.57,135.57,0,0,0-109.19,55.6,134,134,0,0,0-25.82,79.41V2195.61H214.5l.26-.56,139.93-307.87H894.93l108.64,308.43H2390.42l109.37-308.43h545.44ZM213.27,2193.7H25.57V793.54A132,132,0,0,1,51,715.25a133.64,133.64,0,0,1,107.64-54.81H2506.09a133,133,0,0,1,129.28,101.42l178.1,726.68a106.73,106.73,0,0,0,71.84,76.19l218.75,67.51a74.8,74.8,0,0,1,53,71.86v485.13l-110.53-304H2498.44L2389.07,2193.7H1004.92L896.28,1885.27H353.46l-.25.56Z"/><path class="cls-7" d="M306.77,2117.56C306.77,2291.77,448,2433,622.2,2433s315.46-141.22,315.46-315.43a314.58,314.58,0,0,0-101-231.33H407.75A314.58,314.58,0,0,0,306.77,2117.56Z"/><rect class="cls-7" x="155.61" y="994.21" width="1564.09" height="567.8" rx="134.28"/><path class="cls-9" d="M191.82,1141.63v273A134.3,134.3,0,0,0,326.1,1548.88H1549.21a134.3,134.3,0,0,0,134.29-134.29v-273a134.28,134.28,0,0,0-134.29-134.28H326.1A134.29,134.29,0,0,0,191.82,1141.63Z"/><path class="cls-7" d="M2700,1562v-13.14c0-306.33-248.33-554.66-554.66-554.66h-58.7V1562Z"/><path class="cls-9" d="M2109.37,1015.3v525.63h567.82v-12.17a516.87,516.87,0,0,0-3.65-61.43,510.32,510.32,0,0,0-19.26-90.7c-49.94-161.24-177.2-288.48-338.42-338.42a509.81,509.81,0,0,0-90.7-19.26,516.87,516.87,0,0,0-61.43-3.65Z"/><circle class="cls-10" cx="2769.01" cy="2125.44" r="199.78"/><circle class="cls-7" cx="2769.01" cy="2125.44" r="117.41"/><path class="cls-10" d="M2733.34,2377.25a2.87,2.87,0,0,0,0-5.73c-108.58,0-196.92-88.33-196.92-196.92a2.87,2.87,0,0,0-5.73,0C2530.69,2286.35,2621.59,2377.25,2733.34,2377.25Z"/><path class="cls-10" d="M660.87,2377.25c111.74,0,202.64-90.9,202.64-202.65a2.87,2.87,0,0,0-5.73,0c0,108.59-88.33,196.92-196.91,196.92a2.87,2.87,0,1,0,0,5.73Z"/><circle class="cls-10" cx="622.21" cy="2125.44" r="199.78"/><polygon class="cls-10" points="155.61 1635.62 1719.7 1635.62 1624.17 1562.01 251.15 1562.01 155.61 1635.62"/><path d="M152.81,1636.57h1569.7l-98-75.51H250.82l-.25.2Zm1564.09-1.91H158.42L251.47,1563H1623.84Z"/><polygon class="cls-11" points="1713.52 1637.54 163.13 1637.54 192 1659.97 193.23 1660.93 194.46 1661.88 1682.2 1661.88 1683.42 1660.93 1684.66 1659.97 1713.52 1637.54"/><path class="cls-11" d="M1686.21,1660l-1.23,1-1.23,1h-3.1l1.22-1,1.24-1,27.63-21.48H165.92L193.56,1660l1.23,1,1.21,1h-3.1l-1.22-1-1.23-1-30.09-23.39H1716.3Z"/><polygon class="cls-12" points="991.82 1635.62 883.5 1635.62 902.61 1751.28 972.71 1751.28 991.82 1635.62"/><path d="M901.8,1752.23h71.72l.13-.8,19.29-116.77H882.38Zm70.1-1.91H903.42l-18.79-113.75H990.69Z"/><path class="cls-10" d="M222.43,928.49H2019.78a66.82,66.82,0,0,0,66.82-66.81v-147h-1931v147A66.82,66.82,0,0,0,222.43,928.49Z"/><path d="M222.43,929.45H2019.78a67.84,67.84,0,0,0,67.77-67.77V713.74H154.66V861.68A67.84,67.84,0,0,0,222.43,929.45Zm1863.21-213.8v146a65.93,65.93,0,0,1-65.86,65.86H222.43a65.93,65.93,0,0,1-65.86-65.86v-146Z"/><path class="cls-11" d="M156.57,869v23.87a65.94,65.94,0,0,0,65.86,65.86H2019.78a65.93,65.93,0,0,0,65.86-65.86V869a67.87,67.87,0,0,1-65.86,51.79H222.43A67.87,67.87,0,0,1,156.57,869Z"/><g class="cls-13"><polygon class="cls-10" points="1297.65 1007.35 1683.5 1393.17 1683.5 1278.21 1412.64 1007.35 1297.65 1007.35"/></g><g class="cls-13"><path class="cls-10" d="M2225.16,1019l448.38,448.38a510.32,510.32,0,0,0-19.26-90.7l-338.42-338.42A509.81,509.81,0,0,0,2225.16,1019Z"/></g><g class="cls-13"><polygon class="cls-10" points="2109.37 1015.3 2109.37 1057.22 2593.06 1540.93 2664.48 1540.93 2138.87 1015.3 2109.37 1015.3"/></g><g class="cls-13"><polygon class="cls-10" points="2109.37 1083.24 2109.37 1154.66 2495.62 1540.93 2567.06 1540.93 2109.37 1083.24"/></g><g class="cls-13"><path class="cls-10" d="M983.34,1007.35l541.51,541.53h24.36a133.52,133.52,0,0,0,70.58-20.05l-521.48-521.48Z"/></g><g class="cls-13"><polygon class="cls-10" points="809.83 1007.35 1351.38 1548.88 1466.33 1548.88 924.82 1007.35 809.83 1007.35"/></g><path class="cls-1" d="M50.26,714.69H2614.52a134,134,0,0,0-108.43-55.2H158.67A133.85,133.85,0,0,0,50.26,714.69Z"/><path d="M48.38,715.64h2568l-1.11-1.51a135.47,135.47,0,0,0-109.2-55.6H158.67A135.59,135.59,0,0,0,49.48,714.12Zm2564.25-1.91H52.15a133.66,133.66,0,0,1,106.52-53.29H2506.09A133.59,133.59,0,0,1,2612.63,713.73Z"/><path class="cls-1" d="M24.62,2150v82.81A50.38,50.38,0,0,0,75,2283.15h77.49a95.34,95.34,0,0,0,86.8-55.89L339,2008a56.77,56.77,0,0,1,51.69-33.28H855.4A56.77,56.77,0,0,1,909,2012.64l72.86,206.84a95.35,95.35,0,0,0,89.93,63.67H2322.39a95.36,95.36,0,0,0,89.87-63.48l86.85-244.94H3045.9l86.34,237.44c5.09,14,25.81,10.34,25.81-4.54V2150L3066.8,1899a87.32,87.32,0,0,0-82.07-57.49H2560.8a87.32,87.32,0,0,0-82.3,58.14L2389.75,2150H1004.25l-88.1-250.11a87.35,87.35,0,0,0-82.37-58.32H410.31a87.33,87.33,0,0,0-79.5,51.19L213.89,2150Z"/><path d="M75,2284.1h77.49a96.48,96.48,0,0,0,87.67-56.45l99.66-219.24a55.93,55.93,0,0,1,50.82-32.73H855.4A55.91,55.91,0,0,1,908.06,2013l72.86,206.84a96.44,96.44,0,0,0,90.83,64.3H2322.39a96.47,96.47,0,0,0,90.77-64.11l86.63-244.31h545.44l86.12,236.82a14.26,14.26,0,0,0,27.66-4.88l-.06-58-91.25-250.94a88.55,88.55,0,0,0-83-58.11H2560.8a88.43,88.43,0,0,0-83.2,58.77L2389.07,2149H1004.92l-87.87-249.47a88.42,88.42,0,0,0-83.27-59H410.31a88.47,88.47,0,0,0-80.37,51.75L213.27,2149H23.66v83.77A51.39,51.39,0,0,0,75,2284.1Zm780.4-310.33H390.64a57.85,57.85,0,0,0-52.56,33.85l-99.66,219.24a94.56,94.56,0,0,1-85.93,55.33H75a49.48,49.48,0,0,1-49.43-49.42v-81.86H214.5l.26-.56,116.92-257.23a86.54,86.54,0,0,1,78.63-50.63H833.78a86.5,86.5,0,0,1,81.46,57.67l88.33,250.75H2390.42l89-250.92a86.52,86.52,0,0,1,81.4-57.5h423.93a86.63,86.63,0,0,1,81.17,56.85l91.2,250.78v57.5a12.35,12.35,0,0,1-24,4.23l-86.57-238.08H2498.44l-87.08,245.58a94.56,94.56,0,0,1-89,62.84H1071.75a94.53,94.53,0,0,1-89-63l-72.86-206.83A57.83,57.83,0,0,0,855.4,1973.77Z"/><polygon class="cls-12" points="1719.71 1635.62 1611.39 1635.62 1630.5 1751.28 1700.6 1751.28 1719.71 1635.62"/><path d="M1629.69,1752.23h71.72l.13-.8,19.29-116.77H1610.27Zm70.1-1.91h-68.48l-18.79-113.75h106.06Z"/><polygon class="cls-12" points="263.93 1635.62 155.62 1635.62 174.72 1751.28 244.82 1751.28 263.93 1635.62"/><path d="M173.91,1752.23h71.72l.13-.8,19.3-116.77H154.49Zm70.1-1.91H175.53l-18.79-113.75H262.8Z"/><circle class="cls-7" cx="622.21" cy="2125.44" r="117.41"/><rect class="cls-10" x="1238.31" y="1007.35" width="23.04" height="541.53"/><path d="M1237.35,1549.83h25V1006.39h-25Zm23-1.91h-21.13V1008.3h21.13Z"/><rect class="cls-10" x="631.39" y="1007.35" width="23.03" height="541.53"/><path d="M630.44,1549.83h24.94V1006.39H630.44Zm23-1.91H632.35V1008.3h21.12Z"/><path d="M1038.23,2065.21h522.69a2.87,2.87,0,1,0,0-5.73H1038.23a2.87,2.87,0,1,0,0,5.73Z"/><path d="M1643.72,2065.21h252.91a2.87,2.87,0,1,0,0-5.73H1643.72a2.87,2.87,0,1,0,0,5.73Z"/><path d="M1984.41,2065.21h252.92a2.87,2.87,0,1,0,0-5.73H1984.41a2.87,2.87,0,0,0,0,5.73Z"/><path d="M1870.59,1996.59h522.69a2.87,2.87,0,0,0,0-5.74H1870.59a2.87,2.87,0,0,0,0,5.74Z"/><path d="M1534.88,1996.59h252.91a2.87,2.87,0,0,0,0-5.74H1534.88a2.87,2.87,0,0,0,0,5.74Z"/><path d="M1194.18,1996.59H1447.1a2.87,2.87,0,0,0,0-5.74H1194.18a2.87,2.87,0,0,0,0,5.74Z"/><rect class="cls-2" x="2961.78" y="1693.45" width="106.87" height="45.56" rx="13.13"/><path d="M2974.9,1740h80.62a14.1,14.1,0,0,0,14.08-14.08v-19.32a14.1,14.1,0,0,0-14.08-14.08H2974.9a14.1,14.1,0,0,0-14.08,14.08v19.32A14.1,14.1,0,0,0,2974.9,1740Zm80.62-45.57a12.18,12.18,0,0,1,12.17,12.17v19.32a12.18,12.18,0,0,1-12.17,12.17H2974.9a12.18,12.18,0,0,1-12.17-12.17v-19.32a12.18,12.18,0,0,1,12.17-12.17Z"/></g></g></svg>