<svg xmlns="http://www.w3.org/2000/svg" viewBox="0 0 607.03 74.95"><defs><style>.cls-1{fill:#feb9c8;}.cls-2{fill:#fff;}</style></defs><title>pathwork</title><g id="Warstwa_2" data-name="Warstwa 2"><g id="Warstwa_1-2" data-name="Warstwa 1"><circle class="cls-1" cx="27.94" cy="50.83" r="24.12"/><circle class="cls-2" cx="82.56" cy="50.83" r="24.12"/><rect class="cls-2" x="54.63" y="6.4" width="56.17" height="47.4" rx="3.86"/><rect class="cls-1" y="1.2" width="56.17" height="52.6" rx="4.29"/><circle class="cls-1" cx="138.21" cy="50.83" r="24.12"/><rect class="cls-1" x="110.29" y="3.85" width="56.17" height="49.94" rx="4.07"/><circle class="cls-2" cx="193.88" cy="50.83" r="24.12"/><rect class="cls-2" x="165.94" y="6.4" width="56.17" height="47.4" rx="3.86"/><circle class="cls-1" cx="249.53" cy="50.83" r="24.12"/><rect class="cls-1" x="221.6" y="1.59" width="56.17" height="52.21" rx="4.25"/><circle class="cls-2" cx="304.69" cy="50.83" r="24.12"/><rect class="cls-2" x="276.76" y="6.4" width="56.17" height="47.4" rx="3.86"/><circle class="cls-1" cx="360.35" cy="50.83" r="24.12"/><rect class="cls-1" x="332.42" width="56.17" height="53.8" rx="4.38"/><circle class="cls-2" cx="413.87" cy="50.83" r="24.12"/><rect class="cls-2" x="385.95" y="6.4" width="56.17" height="47.4" rx="3.86"/><circle class="cls-1" cx="469.53" cy="50.83" r="24.12" transform="matrix(0.16, -0.99, 0.99, 0.16, 344.14, 506.16)"/><rect class="cls-1" x="441.6" y="0.8" width="56.17" height="53" rx="4.32"/><circle class="cls-2" cx="524.28" cy="50.83" r="24.12"/><rect class="cls-2" x="496.35" y="6.4" width="56.17" height="47.4" rx="3.86"/><circle class="cls-1" cx="579.94" cy="50.83" r="24.12" transform="translate(-1.92 32.15) rotate(-3.17)"/><rect class="cls-1" x="552.01" y="5.19" width="55.02" height="48.6" rx="2.73"/></g></g></svg>